<?xml version="1.0" ?>
<!-- Uploaded to: SVG Repo, www.svgrepo.com, Generator: SVG Repo Mixer Tools -->
<svg width="800px" height="800px" viewBox="0 0 960 960" version="1.1" xml:space="preserve" xmlns="http://www.w3.org/2000/svg" xmlns:xlink="http://www.w3.org/1999/xlink">
<style type="text/css">
	.st0{display:none;}
	.st1{display:inline;opacity:0.93;}
	.st2{display:inline;}
	.st3{fill:none;stroke:#000000;stroke-width:15;stroke-linecap:round;stroke-linejoin:round;stroke-miterlimit:10;}
	.st4{display:inline;fill:none;stroke:#000000;stroke-width:15;stroke-linecap:round;stroke-linejoin:round;stroke-miterlimit:10;}
	.st5{fill:#222222;}
	.st6{fill:#DDEDE7;}
	.st7{fill:#1A1D3F;}
	.st8{fill:#ED644E;}
	.st9{fill:#E9B44D;}
	.st10{fill:#3DC5A1;}
	.st11{fill:#494EDF;}
</style>
<g class="st0" id="guide"/>
<g class="st0" id="sketch"/>
<g class="st0" id="stroke">
<path class="st4" d="M326.7,539.8c21.3-0.3,36.3-1.5,64-0.5c-12.7,28.4-26.7,68-43.4,110.4c-3.7,9.4,8.3,16.9,15.1,9.5   c48.1-52.7,81.1-91.2,134.1-154.3c5-5.9,0.7-15-7.1-14.9c-30,0.4-41.8,1.5-71.9-0.1c-1.4-0.1,9.5-60,17.6-103.3   c1.8-9.7-11-14.9-16.5-6.7c-28.3,42.2-73.9,109.9-99.4,145.8C314.9,531.5,319.3,539.9,326.7,539.8z"/>
<path class="st4" d="M182.2,399.5c3.1,114.1,3,228.1,6.1,342.2c144.3-4.5,302.6-0.3,446.9-4.8c2-103.1-4.1-234.5-2.9-344.2"/>
<path class="st4" d="M92.5,468.8c110.9-83.5,209-167,319.9-250.5c97.5,86.4,211.8,161.7,309.2,248"/>
<path class="st4" d="M825.4,374c0,85.7,0,166.2,0.1,254c0,23.3-0.1,47.2-8.3,69c-8.2,21.8-26.3,37.3-49.4,40.4   c-27.8,3.7-54-13.8-65-39.7c-11-25.8-7.9-55.3-6.4-111.9c0.6-23.4,4-44.5-14.4-59.1c-13.8-11-25.5-14-46.4-13.7"/>
<path class="st4" d="M865.9,297.3c3.1,17.4,2.4,44.7-7.9,59c-7.5,10.4-19.9,17.2-32.7,17.6s-25.7-5.5-33.5-15.7   c-10.8-14.1-10.7-41.6-10.2-59.4C813.6,297.3,837.9,297.1,865.9,297.3z"/>
<path class="st4" d="M805.2,298c-0.2-12.4-0.5-24.8-0.7-37.2"/>
<path class="st4" d="M842.9,297.3c-0.3-13-0.6-26-0.9-38.9"/>
</g>
<g id="outline">
<path class="st5" d="M326.8,547.3c6.7-0.1,12.9-0.3,18.8-0.4c10.6-0.3,20.7-0.6,33.8-0.4c-6.8,16.1-14,34.9-21.5,54.7   c-5.6,14.7-11.4,30-17.6,45.7c-3,7.6-0.3,15.9,6.6,20.2c2.8,1.7,5.8,2.6,8.8,2.6c4.5,0,8.9-1.9,12.2-5.5   c48.1-52.7,81.6-91.8,134.3-154.5c4.2-5,5.1-11.8,2.3-17.8c-2.8-5.9-8.5-9.5-15-9.5c-0.1,0-0.2,0-0.2,0c-7.9,0.1-14.7,0.3-20.6,0.4   c-14.7,0.3-25.8,0.6-43-0.2c1.4-9.9,5.5-34.4,16.8-94.9c1.5-7.8-2.7-15.4-10-18.4c-7.4-3-15.6-0.5-20,6.1   c-26,38.7-73.4,109.2-99.3,145.6c-3.6,5.1-4.1,11.7-1.2,17.3C314.8,544,320.5,547.4,326.8,547.3z M325.3,529.9   c26.1-36.6,73.6-107.1,99.6-145.9c0.2-0.3,0.7-1.1,1.9-0.6c1.2,0.5,1,1.4,1,1.7c-5.1,27.5-9.3,50.2-12.2,67.2   c-6.7,38.5-6.4,38.9-3.9,42.1c1.3,1.7,3.4,2.8,5.5,2.9c22.4,1.2,34.8,0.9,51.9,0.5c5.9-0.1,12.6-0.3,20.5-0.4   c0.7,0,1.2,0.3,1.4,0.9c0.3,0.6,0.2,1.2-0.2,1.7c-52.5,62.5-85.9,101.5-133.9,154.1c-0.3,0.3-0.9,1-2,0.3c-1.1-0.7-0.8-1.5-0.6-1.9   c6.3-15.8,12.1-31.1,17.7-45.9c9.1-24,17.7-46.6,25.6-64.2c1-2.3,0.8-4.9-0.5-7c-1.3-2.1-3.6-3.4-6.1-3.5   c-7.5-0.3-14.2-0.4-20.3-0.4c-9.5,0-17.5,0.2-25.5,0.5c-5.9,0.2-12,0.3-18.6,0.4c0,0,0,0,0,0c-0.6,0-1.1-0.3-1.4-0.8   C324.9,530.9,324.9,530.4,325.3,529.9z M177.8,570.7c0.7,56.1,1.5,114.1,3.1,171.2c0.1,2,0.9,3.9,2.4,5.3c1.4,1.3,3.2,2,5.1,2   c0.1,0,0.2,0,0.2,0c72-2.2,148.9-2.3,223.2-2.4c74.4-0.1,151.4-0.2,223.7-2.4c4-0.1,7.2-3.4,7.3-7.3c1.1-54.5-0.1-118.1-1.3-179.6   c-0.2-12.2-0.5-24.6-0.7-36.9c16.6,0.3,25.7,3.4,36.6,12.1c13.2,10.5,12.6,25.6,11.9,44.8c-0.1,2.7-0.2,5.5-0.3,8.2   c-0.2,8.7-0.5,16.6-0.7,24.3c-1.4,42-2.2,67.4,7.7,90.8c11.6,27.2,37.3,44.7,64.5,44.7c2.8,0,5.5-0.2,8.3-0.5   c25.4-3.4,46.1-20.3,55.5-45.2c8.8-23.4,8.8-49,8.8-71.6l0-36.8c0-71.6,0-139.3-0.1-210.5c12.4-2.4,23.7-9.5,31.2-19.9   c6.9-9.5,9.4-22.7,10.3-32c1.1-10.7,0.6-22.6-1.2-32.7c-0.6-3.6-3.7-6.2-7.3-6.2c-5.4,0-10.6-0.1-15.7-0.1l-0.7-31.6   c-0.1-4.1-3.5-7.4-7.7-7.3c-4.1,0.1-7.4,3.5-7.3,7.7l0.7,31.3c-7.4,0.1-14.9,0.2-22.7,0.4l-0.6-29.7c-0.1-4.1-3.5-7.5-7.6-7.4   c-4.1,0.1-7.4,3.5-7.4,7.6l0.6,29.9c-5.2,0.2-10.6,0.4-16.3,0.7c-3.9,0.2-7,3.4-7.1,7.3c-0.7,23.2,0.2,49,11.7,64.1   c7.6,10,19.4,16.6,32,18.3c0,71,0,138.6,0.1,210.1l0,36.8c0,22.4,0,45.5-7.8,66.3c-7.4,19.7-23.6,33-43.4,35.6   c-23.5,3.1-46.9-11.3-57.1-35.2c-8.6-20.3-7.9-44.4-6.5-84.4c0.3-7.7,0.5-15.6,0.7-24.4c0.1-2.7,0.2-5.4,0.3-8   c0.8-20.6,1.7-41.9-17.5-57.1c-13.7-10.9-25.8-15-46.2-15.4c-0.5-33.1-0.9-66.1-0.8-97.4c26.4,20.9,52.3,42.2,76.9,64   c3.1,2.7,7.8,2.5,10.6-0.6c2.7-3.1,2.5-7.8-0.6-10.6c-28.5-25.3-58.8-49.8-89.4-73.8c0,0-0.1-0.1-0.1-0.1   c-21.8-17.1-43.8-33.9-65.5-50.5c-51.9-39.7-105.7-80.7-154.2-123.7c-2.7-2.4-6.6-2.5-9.5-0.4c-55.5,41.8-108.7,84.3-160.1,125.4   c-51.3,41-104.4,83.4-159.8,125.1c-3.3,2.5-4,7.2-1.5,10.5c1.5,2,3.7,3,6,3c1.6,0,3.2-0.5,4.5-1.5c26.6-20,52.6-40.2,78.1-60.2   C176.4,466.7,177.1,519.5,177.8,570.7z M797.9,353.8c-8.3-10.9-9-33.8-8.8-47.7c5.6-0.3,11-0.5,16.2-0.6c0,0,0,0,0,0   c0,0,0.1,0,0.1,0c0,0,0.1,0,0.1,0c18.9-0.6,35.6-0.7,53.9-0.6c1.8,16.5,0,36.9-7.4,47.2c-6.2,8.6-16.5,14.1-26.8,14.5   C814.6,366.9,804.1,362,797.9,353.8z M257.1,349.4C306.9,309.6,358.4,268.5,412,228c47.7,41.9,99.9,81.7,150.4,120.3   c20.7,15.8,41.6,31.8,62.4,48c-0.4,51,0.6,107,1.7,161.3c1.1,58.7,2.3,119.3,1.4,171.9c-70,2-144.2,2.1-216.1,2.2   c-71.9,0.1-146.1,0.2-216.1,2.2c-1.4-54.6-2.1-109.9-2.9-163.5c-0.7-54.9-1.5-111.6-3-167.5C212.6,385,235,367.1,257.1,349.4z"/>
</g>
<g class="st0" id="flat">
<g class="st2">
<path class="st11" d="M632.3,428.7L412.4,254.3L182.2,435.5c3.1,114.1,3,192.1,6.1,306.2c144.3-4.5,302.6-0.3,446.9-4.8    C637.3,633.7,631.2,538.3,632.3,428.7z M487.8,605.7c-23.3,21.7-55.6,33.1-87.3,31.4c-38.9-2.1-76.6-24.5-95.6-58.6    c-50.2-90.2,46.3-189.5,139.9-161.8c44.6,13.2,78.2,57.2,79.2,103.8C524.7,552.3,511,584,487.8,605.7z"/>
<path class="st9" d="M488.4,489.9c-30,0.4-41.8,1.5-71.9-0.1c-1.4-0.1,9.5-60,17.6-103.3c1.8-9.7-11-14.9-16.5-6.7    c-28.3,42.2-73.9,109.9-99.4,145.8c-4.3,6,0.1,14.4,7.5,14.3c21.3-0.3,36.3-1.5,64-0.5c-12.8,28.4-26.7,68-43.4,110.4    c-3.7,9.4,8.3,16.9,15.1,9.5c48.1-52.7,81.1-91.2,134.1-154.3C500.4,498.9,496.1,489.8,488.4,489.9z"/>
<path class="st11" d="M781.7,298.9c-0.5,17.8-0.5,45.2,10.2,59.4c7.8,10.2,20.7,16.2,33.5,15.7c12.8-0.5,25.2-7.2,32.7-17.6    c10.3-14.3,10.9-41.7,7.9-59C837.9,297.1,813.6,297.3,781.7,298.9z"/>
<path class="st7" d="M470.4,522.9c-2.7,3.2-2.3,7.9,0.9,10.6c1.4,1.2,3.1,1.8,4.8,1.8c2.1,0,4.3-0.9,5.7-2.7    c6.2-7.3,12.6-14.9,19.3-22.9c4.2-5,5.1-11.8,2.3-17.8c-2.8-5.9-8.6-9.6-15.2-9.5c-7.9,0.1-14.7,0.3-20.6,0.4    c-16.8,0.4-28.9,0.7-50.8-0.5c-4.1-0.2-7.7,2.9-7.9,7.1c-0.2,4.1,2.9,7.7,7.1,7.9c22.4,1.2,34.8,0.9,51.9,0.5    c5.9-0.1,12.6-0.3,20.5-0.4c0.7,0,1.2,0.3,1.4,0.9c0.3,0.6,0.2,1.2-0.2,1.7C483,508,476.6,515.6,470.4,522.9z"/>
<path class="st7" d="M345.9,667.1c2.8,1.7,5.8,2.6,8.8,2.6c4.5,0,8.9-1.9,12.2-5.5c21.8-23.9,41.1-45.5,60.6-67.9    c2.7-3.1,2.4-7.9-0.7-10.6c-3.1-2.7-7.9-2.4-10.6,0.7c-19.4,22.4-38.6,43.8-60.3,67.7c-0.3,0.3-0.9,1-2,0.3    c-1.1-0.7-0.8-1.5-0.6-1.9c1.5-3.9-0.4-8.2-4.2-9.7c-3.8-1.5-8.2,0.4-9.7,4.2C336.3,654.5,339,662.8,345.9,667.1z"/>
<path class="st7" d="M423.9,383.9c0.2-0.3,0.7-1.1,1.9-0.6c1.2,0.5,1,1.4,1,1.7c-0.8,4.1,1.9,8,6,8.7c4.1,0.8,8-1.9,8.7-6    c1.5-7.8-2.7-15.4-10-18.4c-7.4-3-15.6-0.5-20,6.1c-26,38.7-73.4,109.2-99.3,145.6c-3.6,5.1-4.1,11.7-1.2,17.3    c2.9,5.5,8.5,8.9,14.7,8.9c0.1,0,0.1,0,0.2,0c4.1,0,7.5-3.4,7.4-7.6c0-4.1-3.4-7.4-7.5-7.4c0,0-0.1,0-0.1,0    c-0.7,0-1.1-0.3-1.4-0.8c-0.3-0.6-0.3-1.1,0.1-1.6C350.3,493.3,397.9,422.7,423.9,383.9z"/>
<path class="st7" d="M412,228c47.7,41.9,99.9,81.7,150.4,120.3C614.4,388,668.1,429,716.6,472c3.1,2.7,7.8,2.5,10.6-0.6    c2.7-3.1,2.5-7.8-0.6-10.6c-48.9-43.4-102.9-84.5-155-124.4c-51.9-39.7-105.7-80.7-154.2-123.7c-2.7-2.4-6.6-2.5-9.5-0.4    c-55.5,41.8-108.7,84.3-160.1,125.4c-51.3,41-104.4,83.4-159.8,125.1c-3.3,2.5-4,7.2-1.5,10.5c1.5,2,3.7,3,6,3    c1.6,0,3.2-0.5,4.5-1.5c55.5-41.8,108.7-84.3,160.1-125.4C306.9,309.6,358.4,268.5,412,228z"/>
<path class="st7" d="M688.9,585.6c-0.2,8.7-0.5,16.6-0.7,24.3c-1.4,42-2.2,67.4,7.7,90.8c11.6,27.2,37.3,44.7,64.5,44.7    c2.8,0,5.5-0.2,8.3-0.5c25.4-3.4,46.1-20.3,55.5-45.2c8.8-23.4,8.8-49,8.8-71.6l0-36.8c0-73.8,0-143.6-0.1-217.2    c0-4.1-3.4-7.5-7.5-7.5s-7.5,3.4-7.5,7.5c0,73.6,0,143.4,0.1,217.2l0,36.8c0,22.4,0,45.5-7.8,66.3c-7.4,19.7-23.6,33-43.4,35.6    c-23.5,3.1-46.9-11.3-57.1-35.2c-8.6-20.3-7.9-44.4-6.5-84.4c0.3-7.7,0.5-15.6,0.7-24.4c0.1-2.7,0.2-5.4,0.3-8    c0.8-20.6,1.7-41.9-17.5-57.1c-14.8-11.7-27.7-15.6-51.1-15.4c-4.1,0-7.5,3.4-7.4,7.6c0,4.1,3.4,7.4,7.5,7.4c0,0,0.1,0,0.1,0    c19.9-0.2,29.7,2.6,41.6,12.1c13.2,10.5,12.6,25.6,11.9,44.8C689.1,580,689,582.8,688.9,585.6z"/>
<path class="st7" d="M797.7,298.1c0.1,4.1,3.4,7.4,7.5,7.4c0,0,0.1,0,0.1,0c4.1-0.1,7.4-3.5,7.4-7.6l-0.7-37.2    c-0.1-4.1-3.5-7.5-7.6-7.4c-4.1,0.1-7.4,3.5-7.4,7.6L797.7,298.1z"/>
<path class="st7" d="M841.8,250.8c-4.1,0.1-7.4,3.5-7.3,7.7l0.9,38.9c0.1,4.1,3.4,7.3,7.5,7.3c0.1,0,0.1,0,0.2,0    c4.1-0.1,7.4-3.5,7.3-7.7l-0.9-38.9C849.4,254,846,250.7,841.8,250.8z"/>
<path class="st7" d="M382.8,535.2c-4.6,10.3-12.6,30.9-18.6,46.4c-1.5,3.9,0.5,8.2,4.3,9.7c0.9,0.3,1.8,0.5,2.7,0.5    c3,0,5.9-1.8,7-4.8c8.4-21.9,14.7-37.7,18.2-45.6c1.7-3.8,0-8.2-3.8-9.9C389,529.8,384.5,531.5,382.8,535.2z"/>
</g>
</g>
<g class="st0" id="colored_x5F_line">
<g class="st2">
<path class="st9" d="M412.4,254.3L182.2,435.5c3.1,114.1,3,192.1,6.1,306.2c144.3-4.5,302.6-0.3,446.9-4.8    c2-103.1-4.1-198.5-2.9-308.2L412.4,254.3z M487.8,605.7c-23.3,21.7-55.6,33.1-87.3,31.4c-5.6-0.3-11.2-1-16.7-2.1    c-7.6,9.7-17.4,17.6-27.8,25c-4,2-8-1-8-5c-0.8-10.2,0.9-21,5.5-30.5c-20.3-10.2-37.6-26.1-48.7-45.9    c-41.7-74.8,17.6-155.9,92.4-165.5c9.1-15.6,16.3-36.4,30.7-33c9.8,2.4,5.6,19.4,3.8,33.7c4.4,0.8,8.7,1.8,13.1,3.1    c44.6,13.2,78.2,57.2,79.2,103.8C524.7,552.3,511,584,487.8,605.7z"/>
<path class="st9" d="M781.7,298.9c-0.5,17.8-0.5,45.2,10.2,59.4c7.8,10.2,20.7,16.2,33.5,15.7c12.8-0.5,25.2-7.2,32.7-17.6    c10.3-14.3,10.9-41.7,7.9-59C837.9,297.1,813.6,297.3,781.7,298.9z"/>
<path class="st5" d="M412,228c47.7,41.9,99.9,81.7,150.4,120.3C614.4,388,668.1,429,716.6,472c3.1,2.7,7.8,2.5,10.6-0.6    c2.7-3.1,2.5-7.8-0.6-10.6c-48.9-43.4-102.9-84.5-155-124.4c-51.9-39.7-105.7-80.7-154.2-123.7c-2.7-2.4-6.6-2.5-9.5-0.4    c-55.5,41.8-108.7,84.3-160.1,125.4c-51.3,41-104.4,83.4-159.8,125.1c-3.3,2.5-4,7.2-1.5,10.5c1.5,2,3.7,3,6,3    c1.6,0,3.2-0.5,4.5-1.5c55.5-41.8,108.7-84.3,160.1-125.4C306.9,309.6,358.4,268.5,412,228z"/>
<path class="st5" d="M688.9,585.6c-0.2,8.7-0.5,16.6-0.7,24.3c-1.4,42-2.2,67.4,7.7,90.8c11.6,27.2,37.3,44.7,64.5,44.7    c2.8,0,5.5-0.2,8.3-0.5c25.4-3.4,46.1-20.3,55.5-45.2c8.8-23.4,8.8-49,8.8-71.6l0-36.8c0-73.8,0-143.6-0.1-217.2    c0-4.1-3.4-7.5-7.5-7.5s-7.5,3.4-7.5,7.5c0,73.6,0,143.4,0.1,217.2l0,36.8c0,22.4,0,45.5-7.8,66.3c-7.4,19.7-23.6,33-43.4,35.6    c-23.5,3.1-46.9-11.3-57.1-35.2c-8.6-20.3-7.9-44.4-6.5-84.4c0.3-7.7,0.5-15.6,0.7-24.4c0.1-2.7,0.2-5.4,0.3-8    c0.8-20.6,1.7-41.9-17.5-57.1c-14.8-11.7-27.7-15.6-51.1-15.4c-4.1,0-7.5,3.4-7.4,7.6c0,4.1,3.4,7.4,7.5,7.4c0,0,0.1,0,0.1,0    c19.9-0.2,29.7,2.6,41.6,12.1c13.2,10.5,12.6,25.6,11.9,44.8C689.1,580,689,582.8,688.9,585.6z"/>
<path class="st5" d="M797.7,298.1c0.1,4.1,3.4,7.4,7.5,7.4c0,0,0.1,0,0.1,0c4.1-0.1,7.4-3.5,7.4-7.6l-0.7-37.2    c-0.1-4.1-3.5-7.5-7.6-7.4c-4.1,0.1-7.4,3.5-7.4,7.6L797.7,298.1z"/>
<path class="st5" d="M841.8,250.8c-4.1,0.1-7.4,3.5-7.3,7.7l0.9,38.9c0.1,4.1,3.4,7.3,7.5,7.3c0.1,0,0.1,0,0.2,0    c4.1-0.1,7.4-3.5,7.3-7.7l-0.9-38.9C849.4,254,846,250.7,841.8,250.8z"/>
<path class="st5" d="M340.3,646.9c-3,7.6-0.3,15.9,6.6,20.2c2.8,1.7,5.8,2.6,8.8,2.6c4.5,0,8.9-1.9,12.2-5.5    c48.1-52.7,81.6-91.8,134.3-154.5c4.2-5,5.1-11.8,2.3-17.8c-2.8-5.9-8.5-9.5-15-9.5c-0.1,0-0.2,0-0.2,0    c-7.9,0.1-14.7,0.3-20.6,0.4c-14.7,0.3-25.8,0.6-43-0.2c1.4-9.9,5.5-34.4,16.8-94.9c1.5-7.8-2.7-15.4-10-18.4    c-7.4-3-15.6-0.5-20,6.1c-26,38.7-73.4,109.2-99.3,145.6c-3.6,5.1-4.1,11.7-1.2,17.3c2.9,5.6,8.6,9,14.9,8.9    c6.7-0.1,12.9-0.3,18.8-0.4c10.6-0.3,20.7-0.6,33.8-0.4c-6.8,16.1-14,34.9-21.5,54.7C352.3,615.9,346.5,631.2,340.3,646.9z     M397.5,542.4c1-2.3,0.8-4.9-0.5-7c-1.3-2.1-3.6-3.4-6.1-3.5c-7.5-0.3-14.2-0.4-20.3-0.4c-9.5,0-17.5,0.2-25.5,0.5    c-5.9,0.2-12,0.3-18.6,0.4c0,0,0,0,0,0c-0.6,0-1.1-0.3-1.4-0.8c-0.3-0.6-0.3-1.1,0.1-1.6c26.1-36.6,73.6-107.1,99.6-145.9    c0.2-0.3,0.7-1.1,1.9-0.6c1.2,0.5,1,1.4,1,1.7c-5.1,27.5-9.3,50.2-12.2,67.2c-6.7,38.5-6.4,38.9-3.9,42.1c1.3,1.7,3.4,2.8,5.5,2.9    c22.4,1.2,34.8,0.9,51.9,0.5c5.9-0.1,12.6-0.3,20.5-0.4c0.7,0,1.2,0.3,1.4,0.9c0.3,0.6,0.2,1.2-0.2,1.7    c-52.5,62.5-85.9,101.5-133.9,154.1c-0.3,0.3-0.9,1-2,0.3c-1.1-0.7-0.8-1.5-0.6-1.9c6.3-15.8,12.1-31.1,17.7-45.9    C381,582.6,389.6,560,397.5,542.4z"/>
</g>
</g>
</svg>