<svg class="svg-icon" style="width: 1.125em; height: 1em;vertical-align: middle;fill: currentColor;overflow: hidden;" viewBox="0 0 1152 1024" version="1.1" xmlns="http://www.w3.org/2000/svg"><path d="M672 896H32c-17.68 0-32 14.32-32 32v64c0 17.68 14.32 32 32 32h640c17.68 0 32-14.32 32-32v-64c0-17.68-14.32-32-32-32z m416-640V160c0-17.68-14.32-32-32-32s-32 14.32-32 32v96h-64V160c0-17.68-14.32-32-32-32s-32 14.32-32 32v96h-32c-17.68 0-32 14.32-32 32v64c0 71.52 47.24 131.38 112 151.86v236.98c0 27.9-19 53.84-46.52 58.38C862.44 805 832 777.98 832 744v-56c0-97.2-78.8-176-176-176h-16V128c0-70.7-57.3-128-128-128H192C121.3 0 64 57.3 64 128v704h576V608h16c44.18 0 80 35.82 80 80v49.22c0 79.34 57.84 150.32 136.82 158.02C963.42 904.1 1040 832.82 1040 744V503.86c64.76-20.48 112-80.34 112-151.86v-64c0-17.68-14.32-32-32-32h-32z m-567.82 95.52l-187.4 278c-4.4 6.66-12.42 10.48-20.78 10.48-15.34 0-26.94-12.56-23.34-25.84L334.7 448H216c-14.5 0-25.7-11.18-23.78-23.78l32-214C225.8 199.8 235.96 192 248 192h136c15.76 0 27.24 13.08 23.2 26.42L384 320h115.4c18.48 0 30.02 17.56 20.78 31.52z" fill="" /></svg>