<?xml version="1.0" ?>
<!-- Uploaded to: SVG Repo, www.svgrepo.com, Generator: SVG Repo Mixer Tools -->
<svg width="800px" height="800px" viewBox="0 0 960 960" version="1.1" xml:space="preserve" xmlns="http://www.w3.org/2000/svg" xmlns:xlink="http://www.w3.org/1999/xlink">
<style type="text/css">
	.st0{display:none;}
	.st1{display:inline;opacity:0.93;}
	.st2{display:inline;}
	.st3{fill:none;stroke:#000000;stroke-width:15;stroke-linecap:round;stroke-linejoin:round;stroke-miterlimit:10;}
	.st4{display:inline;fill:none;stroke:#000000;stroke-width:15;stroke-linecap:round;stroke-linejoin:round;stroke-miterlimit:10;}
	.st5{fill:#222222;}
	.st6{fill:#DDEDE7;}
	.st7{fill:#1A1D3F;}
	.st8{fill:#ED644E;}
	.st9{fill:#E9B44D;}
	.st10{fill:#3DC5A1;}
	.st11{fill:#494EDF;}
</style>
<g class="st0" id="guide"/>
<g class="st0" id="sketch"/>
<g class="st0" id="stroke">
<g class="st2">
<path class="st3" d="M357.4,297.9c-46.5,0.4-80.4,0.9-125.4,1.5c-28.3,0.3-76.7-1.5-98.5,21.2c-30.5,31.8-34.3,116.6-33.3,172.6    c1.1,60.7-4.1,135.5,45.8,170.1c32.5,22.5,117.3,16.3,156.8,15.9"/>
<path class="st3" d="M569.6,295.9c73.4-0.5,89.3-0.9,120.1-1.2c91.3-0.8,94.1,44.9,95.3,92.4c2,76,1.6,125.8,3.8,181.3    c1.2,28.8-3.1,58.4-21.8,80.3c-21.4,25.1-56.5,27.3-89.4,27.6c-57.6,0.5-111.1,0.9-168.8,1.1"/>
<path class="st3" d="M785.5,406.5c22.1-0.7,46.5-1.4,68.6-2.1c3,43.6,2.7,87.2,5.8,130.8c-24.4,0.9-47.7,1.9-72,2.8"/>
<path class="st3" d="M321.6,517.2c37.8-0.5,78.2,1.6,113.9-1c-22.7,50.5-47.4,121.1-77.3,196.4c-6.6,16.7,14.8,30.1,26.9,16.8    c85.5-93.7,144.3-162.3,238.5-274.5c8.9-10.6,1.2-26.7-12.6-26.5c-53.4,0.7-74.4,2.6-127.9-0.3c-2.6-0.1,16.9-106.8,31.3-183.9    c3.2-17.2-19.5-26.5-29.3-12c-50.3,75-131.5,195.6-176.9,259.4C300.6,502.5,308.4,517.4,321.6,517.2z"/>
</g>
</g>
<g id="outline">
<path class="st5" d="M310.4,679c0,4.1-3.3,7.5-7.4,7.6c-5.7,0.1-12.5,0.2-19.7,0.4c-11.4,0.3-24.3,0.7-37.7,0.7   c-38.8,0-81.6-2.9-103.8-18.3c-48-33.3-48.4-99-48.8-157c0-6.6-0.1-12.9-0.2-19.1c-1.1-63.1,4.1-145.2,35.4-177.9   c22.2-23.1,66.8-23.3,96.3-23.5c2.6,0,5.1,0,7.5-0.1c13.6-0.2,26.2-0.3,38.5-0.5c28-0.4,54.5-0.7,86.9-1c0,0,0,0,0.1,0   c4.1,0,7.5,3.3,7.5,7.4c0,4.1-3.3,7.5-7.4,7.6c-32.4,0.3-58.9,0.6-86.9,1c-12.3,0.2-24.9,0.3-38.5,0.5c-2.4,0-4.9,0-7.6,0.1   c-27,0.1-67.8,0.4-85.5,18.9c-21.7,22.6-32.7,82-31.2,167.2c0.1,6.3,0.2,12.6,0.2,19.3c0.4,54.3,0.8,115.9,42.4,144.8   c25.8,17.9,92.6,16.1,132.5,15c7.3-0.2,14.1-0.4,19.9-0.4c0,0,0.1,0,0.1,0C307,671.6,310.4,674.9,310.4,679z M867.4,534.6   c0.1,2-0.5,4-1.9,5.5c-1.4,1.5-3.3,2.4-5.3,2.5c-12.3,0.5-24.3,0.9-36.4,1.4c-9.4,0.4-18.7,0.7-28.2,1.1c0.2,7.6,0.5,15.2,0.8,23   c1.5,37.2-6.2,65.1-23.6,85.5c-23.3,27.3-59.7,29.9-95.1,30.3c-61.4,0.5-113.6,0.9-168.8,1.1c0,0,0,0,0,0c-4.1,0-7.5-3.3-7.5-7.5   c0-4.1,3.3-7.5,7.5-7.5c55.2-0.2,107.4-0.5,168.7-1.1c31.9-0.3,64.6-2.5,83.8-25c14.8-17.4,21.4-41.9,20-75.2   c-0.4-10.3-0.7-20.3-1-30.4c0-0.1,0-0.1,0-0.2c0-0.1,0-0.2,0-0.3c-0.5-19.9-0.8-39.9-1.1-61.8c-0.4-25.8-0.8-54.9-1.7-88.8   c-0.6-20.7-1.2-44.2-12.5-60.1c-18.1-25.4-61.1-25.1-75.3-25c-11.1,0.1-20.3,0.2-30.9,0.3c-18.9,0.2-42.3,0.5-89.2,0.9   c0,0,0,0-0.1,0c-4.1,0-7.5-3.3-7.5-7.4c0-4.1,3.3-7.5,7.4-7.6c46.9-0.3,70.3-0.6,89.1-0.9c10.7-0.1,19.8-0.2,31-0.3   c0.8,0,1.5,0,2.3,0c42.5,0,70.4,10.2,85.4,31.3c14,19.7,14.7,45.6,15.3,68.4c0.1,4,0.2,7.9,0.3,11.8c8.7-0.3,17.6-0.5,26.6-0.8   c11.7-0.4,23.3-0.7,34.5-1.1c4-0.1,7.4,3,7.7,7c1.5,21.9,2.2,44.2,2.9,65.7C865.2,490.9,865.9,512.9,867.4,534.6z M851.9,527.9   c-1.2-19.4-1.8-39-2.4-57.9c-0.6-19-1.2-38.6-2.4-57.9c-8.9,0.3-18.1,0.6-27.2,0.8c-9,0.3-18,0.6-26.7,0.8   c0.5,22.9,0.8,43.5,1,62.2c0.3,19.1,0.5,36.8,0.9,54.2c9.4-0.4,18.7-0.7,28-1.1C832.7,528.7,842.2,528.3,851.9,527.9z M629.4,459.8   c-93.6,111.5-153.2,181-238.8,274.8c-4.7,5.2-10.9,7.9-17.3,7.9c-4.3,0-8.7-1.2-12.7-3.8c-10-6.2-13.8-17.8-9.4-28.8   c11.1-28,21.4-55.2,31.4-81.4c14.4-38,28.2-74.2,41.1-104.1c-20,0.9-41.1,0.6-61.6,0.4c-13.3-0.1-27.1-0.3-40.4-0.1   c-0.1,0-0.2,0-0.3,0c-8.8,0-16.9-4.8-21-12.7c-4.1-7.9-3.5-17.4,1.7-24.7c46.2-64.9,130.6-190.3,176.8-259.2   c6.4-9.6,17.9-13.1,28.6-8.7c10.7,4.4,16.4,14.9,14.3,26.2c-22.6,121.1-29.1,161.9-30.8,175.4c34.6,1.7,55.3,1.2,83.4,0.6   c10.6-0.2,22.6-0.5,36.6-0.7c0.1,0,0.2,0,0.3,0c9.2,0,17.4,5.2,21.3,13.5C636.7,442.9,635.4,452.6,629.4,459.8z M619.1,440.9   c-1.5-3.1-4.5-5-7.9-4.9c-14,0.2-25.9,0.5-36.5,0.7c-30.3,0.7-52.2,1.2-91.9-1c-2.2-0.1-4.2-1.2-5.6-2.9c-2.7-3.4-3.4-4.4,8.1-70.2   c5.3-30.4,12.6-70.6,21.8-119.6c1-5.1-2.1-8.3-5.2-9.6c-3.2-1.3-7.5-1.1-10.4,3.2c-46.2,69-130.7,194.5-177.1,259.5   c-1.9,2.7-2.2,6.1-0.6,9c1.5,2.9,4.5,4.6,7.8,4.6c13.4-0.2,27.3,0,40.7,0.1c24.5,0.3,49.9,0.6,72.7-1.1c0.2,0,0.4,0,0.5,0   c2.4,0,4.7,1.2,6.1,3.2c1.5,2.2,1.8,5,0.7,7.4c-14.1,31.5-29.5,71.8-45.7,114.5c-10,26.3-20.3,53.5-31.5,81.6   c-2,4.9,0.5,8.7,3.5,10.5c3,1.8,7.4,2.4,11-1.5c85.4-93.6,144.9-163,238.3-274.3C620.2,447.5,620.6,444,619.1,440.9z"/>
</g>
<g class="st0" id="flat">
<g class="st2">
<path class="st9" d="M611.1,428.4c-53.4,0.7-74.4,2.6-127.9-0.3c-2.6-0.1,16.9-106.8,31.3-183.9c3.2-17.2-19.5-26.5-29.3-12    c-50.3,75-131.5,195.6-176.9,259.4c-7.7,10.8,0.1,25.6,13.4,25.5c37.8-0.5,78.2,1.6,113.9-1c-22.7,50.5-47.4,121.1-77.3,196.4    c-6.6,16.7,14.8,30.1,26.9,16.8c85.5-93.7,144.3-162.3,238.5-274.5C632.6,444.4,624.9,428.3,611.1,428.4z"/>
<path class="st7" d="M357.4,290.4C357.4,290.4,357.4,290.4,357.4,290.4c-32.5,0.3-59,0.6-87,1c-12.3,0.2-24.9,0.3-38.5,0.5    c-2.4,0-4.9,0-7.5,0.1c-29.5,0.2-74.1,0.4-96.3,23.5C96.8,348,91.6,430.1,92.8,493.3c0.1,6.2,0.2,12.5,0.2,19.1    c0.4,58,0.9,123.7,48.8,157c22.2,15.4,65,18.3,103.8,18.3c13.4,0,26.3-0.3,37.7-0.7c7.2-0.2,14-0.4,19.7-0.4    c4.1,0,7.5-3.4,7.4-7.6c0-4.1-3.4-7.4-7.5-7.4c0,0-0.1,0-0.1,0c-5.8,0.1-12.7,0.2-19.9,0.4c-39.9,1.1-106.8,2.9-132.5-15    c-41.6-28.8-42-90.4-42.4-144.8c0-6.7-0.1-13-0.2-19.3c-1.5-85.3,9.5-144.6,31.2-167.2c17.8-18.5,58.6-18.7,85.5-18.9    c2.7,0,5.2,0,7.6-0.1c13.6-0.2,26.3-0.3,38.5-0.5c28-0.4,54.5-0.7,86.9-1c4.1,0,7.5-3.4,7.4-7.6    C364.9,293.7,361.5,290.4,357.4,290.4z"/>
<path class="st7" d="M864.5,469.5c-0.7-21.5-1.4-43.7-2.9-65.7c-0.3-4-3.7-7.1-7.7-7c-11.1,0.4-22.8,0.7-34.5,1.1    c-8.9,0.3-17.9,0.5-26.6,0.8c-0.1-3.9-0.2-7.8-0.3-11.8c-0.6-22.8-1.3-48.7-15.3-68.4c-14.9-21-42.9-31.3-85.4-31.3    c-0.7,0-1.5,0-2.3,0c-11.1,0.1-20.3,0.2-31,0.3c-18.8,0.2-42.3,0.5-89.1,0.9c-4.1,0-7.5,3.4-7.4,7.6c0,4.1,3.4,7.4,7.5,7.4    c0,0,0,0,0.1,0c46.9-0.3,70.4-0.6,89.2-0.9c10.6-0.1,19.8-0.2,30.9-0.3c14.1-0.1,57.2-0.5,75.3,25c11.3,16,12,39.4,12.5,60.1    c0.9,33.9,1.3,63.1,1.7,88.8c0.3,21.9,0.6,41.9,1.1,61.8c0,0.1,0,0.2,0,0.3c0,0.1,0,0.1,0,0.2c0.3,10,0.6,20.1,1,30.4    c1.3,33.2-5.2,57.8-20,75.2c-19.2,22.5-51.9,24.7-83.8,25c-61.3,0.5-113.5,0.9-168.7,1.1c-4.1,0-7.5,3.4-7.5,7.5    c0,4.1,3.4,7.5,7.5,7.5c0,0,0,0,0,0c55.3-0.2,107.4-0.5,168.8-1.1c35.3-0.4,71.8-3,95.1-30.3c17.4-20.4,25.1-48.3,23.6-85.5    c-0.3-7.8-0.6-15.4-0.8-23c9.5-0.4,18.9-0.7,28.2-1.1c12-0.5,24.1-0.9,36.4-1.4c2-0.1,3.9-1,5.3-2.5c1.4-1.5,2-3.5,1.9-5.5    C865.9,512.9,865.2,490.9,864.5,469.5z M823.2,529c-9.3,0.4-18.6,0.7-28,1.1c-0.4-17.4-0.7-35-0.9-54.2c-0.3-18.7-0.6-39.3-1-62.2    c8.7-0.3,17.7-0.5,26.7-0.8c9.2-0.3,18.3-0.6,27.2-0.8c1.2,19.3,1.8,38.9,2.4,57.9c0.6,19,1.2,38.5,2.4,57.9    C842.2,528.3,832.7,528.7,823.2,529z"/>
</g>
</g>
<g class="st0" id="colored_x5F_line">
<g class="st2">
<path class="st9" d="M611.1,428.4c-53.4,0.7-74.4,2.6-127.9-0.3c-2.6-0.1,16.9-106.8,31.3-183.9c3.2-17.2-19.5-26.5-29.3-12    c-50.3,75-131.5,195.6-176.9,259.4c-7.7,10.8,0.1,25.6,13.4,25.5c37.8-0.5,78.2,1.6,113.9-1c-22.7,50.5-47.4,121.1-77.3,196.4    c-6.6,16.7,14.8,30.1,26.9,16.8c85.5-93.7,144.3-162.3,238.5-274.5C632.6,444.4,624.9,428.3,611.1,428.4z"/>
<path class="st5" d="M357.4,290.4C357.4,290.4,357.4,290.4,357.4,290.4c-32.5,0.3-59,0.6-87,1c-12.3,0.2-24.9,0.3-38.5,0.5    c-2.4,0-4.9,0-7.5,0.1c-29.5,0.2-74.1,0.4-96.3,23.5C96.8,348,91.6,430.1,92.8,493.3c0.1,6.2,0.2,12.5,0.2,19.1    c0.4,58,0.9,123.7,48.8,157c22.2,15.4,65,18.3,103.8,18.3c13.4,0,26.3-0.3,37.7-0.7c7.2-0.2,14-0.4,19.7-0.4    c4.1,0,7.5-3.4,7.4-7.6c0-4.1-3.4-7.4-7.5-7.4c0,0-0.1,0-0.1,0c-5.8,0.1-12.7,0.2-19.9,0.4c-39.9,1.1-106.8,2.9-132.5-15    c-41.6-28.8-42-90.4-42.4-144.8c0-6.7-0.1-13-0.2-19.3c-1.5-85.3,9.5-144.6,31.2-167.2c17.8-18.5,58.6-18.7,85.5-18.9    c2.7,0,5.2,0,7.6-0.1c13.6-0.2,26.3-0.3,38.5-0.5c28-0.4,54.5-0.7,86.9-1c4.1,0,7.5-3.4,7.4-7.6    C364.9,293.7,361.5,290.4,357.4,290.4z"/>
<path class="st5" d="M864.5,469.5c-0.7-21.5-1.4-43.7-2.9-65.7c-0.3-4-3.7-7.1-7.7-7c-11.1,0.4-22.8,0.7-34.5,1.1    c-8.9,0.3-17.9,0.5-26.6,0.8c-0.1-3.9-0.2-7.8-0.3-11.8c-0.6-22.8-1.3-48.7-15.3-68.4c-14.9-21-42.9-31.3-85.4-31.3    c-0.7,0-1.5,0-2.3,0c-11.1,0.1-20.3,0.2-31,0.3c-18.8,0.2-42.3,0.5-89.1,0.9c-4.1,0-7.5,3.4-7.4,7.6c0,4.1,3.4,7.4,7.5,7.4    c0,0,0,0,0.1,0c46.9-0.3,70.4-0.6,89.2-0.9c10.6-0.1,19.8-0.2,30.9-0.3c14.1-0.1,57.2-0.5,75.3,25c11.3,16,12,39.4,12.5,60.1    c0.9,33.9,1.3,63.1,1.7,88.8c0.3,21.9,0.6,41.9,1.1,61.8c0,0.1,0,0.2,0,0.3c0,0.1,0,0.1,0,0.2c0.3,10,0.6,20.1,1,30.4    c1.3,33.2-5.2,57.8-20,75.2c-19.2,22.5-51.9,24.7-83.8,25c-61.3,0.5-113.5,0.9-168.7,1.1c-4.1,0-7.5,3.4-7.5,7.5    c0,4.1,3.4,7.5,7.5,7.5c0,0,0,0,0,0c55.3-0.2,107.4-0.5,168.8-1.1c35.3-0.4,71.8-3,95.1-30.3c17.4-20.4,25.1-48.3,23.6-85.5    c-0.3-7.8-0.6-15.4-0.8-23c9.5-0.4,18.9-0.7,28.2-1.1c12-0.5,24.1-0.9,36.4-1.4c2-0.1,3.9-1,5.3-2.5c1.4-1.5,2-3.5,1.9-5.5    C865.9,512.9,865.2,490.9,864.5,469.5z M823.2,529c-9.3,0.4-18.6,0.7-28,1.1c-0.4-17.4-0.7-35-0.9-54.2c-0.3-18.7-0.6-39.3-1-62.2    c8.7-0.3,17.7-0.5,26.7-0.8c9.2-0.3,18.3-0.6,27.2-0.8c1.2,19.3,1.8,38.9,2.4,57.9c0.6,19,1.2,38.5,2.4,57.9    C842.2,528.3,832.7,528.7,823.2,529z"/>
</g>
</g>
</svg>